font.ufo
<glyph name="dvDDHxA" format="1">
  <advance width="487"/>
  <unicode hex="095D"/>
  <outline>
    <contour>
      <point x="194" y="-109" type="move" name="blwm_halant"/>
    </contour>
    <contour>
      <point x="194" y="-185" type="move" name="blwm_Ukaar"/>
    </contour>
    <contour>
      <point x="308" y="-185" type="move" name="blwm_VocalicR"/>
    </contour>
    <contour>
      <point x="322" y="623" type="move" name="abvm_Anusvara"/>
    </contour>
    <contour>
      <point x="171" y="-195" type="move" name="blwm_Uukaar"/>
    </contour>
    <contour>
      <point x="424" y="623" type="move" name="abvm_Ekaar"/>
    </contour>
    <component base="dvDDHA"/>
    <component base="dvNukta" xOffset="548" yOffset="-20"/>
  </outline>
</glyph>
<glyph name="dvPHxA" format="1">
  <advance width="745"/>
  <unicode hex="095E"/>
  <outline>
    <contour>
      <point x="319" y="0" type="move" name="blwm_halant"/>
    </contour>
    <contour>
      <point x="319" y="0" type="move" name="blwm_Ukaar"/>
    </contour>
    <contour>
      <point x="436" y="0" type="move" name="blwm_VocalicR"/>
    </contour>
    <contour>
      <point x="436" y="623" type="move" name="abvm_Anusvara"/>
    </contour>
    <contour>
      <point x="319" y="0" type="move" name="blwm_Uukaar"/>
    </contour>
    <contour>
      <point x="436" y="623" type="move" name="abvm_Ekaar"/>
    </contour>
    <component base="dvPHA"/>
    <component base="dvNukta" xOffset="470" yOffset="38"/>
  </outline>
</glyph>
<glyph name="dvB_DA" format="1">
  <advance width="784"/>
  <outline>
    <contour>
      <point x="618" y="20" type="move" name="blwm_halant"/>
    </contour>
    <contour>
      <point x="618" y="0" type="move" name="blwm_Ukaar"/>
    </contour>
    <contour>
      <point x="733" y="0" type="move" name="blwm_VocalicR"/>
    </contour>
    <contour>
      <point x="612" y="623" type="move" name="abvm_Anusvara"/>
    </contour>
    <contour>
      <point x="618" y="0" type="move" name="blwm_Uukaar"/>
    </contour>
    <contour>
      <point x="728" y="623" type="move" name="abvm_Ekaar"/>
    </contour>
    <component base="dvDA" xOffset="301"/>
    <component base="dvB"/>
  </outline>
</glyph>
<glyph name="dvCH_RA" format="1">
  <advance width="553"/>
  <outline>
    <contour>
      <point x="221" y="-68" type="move" name="blwm_halant"/>
    </contour>
    <contour>
      <point x="261" y="-144" type="move" name="blwm_Ukaar"/>
    </contour>
    <contour>
      <point x="342" y="-144" type="move" name="blwm_VocalicR"/>
    </contour>
    <contour>
      <point x="331" y="623" type="move" name="abvm_Anusvara"/>
    </contour>
    <contour>
      <point x="221" y="-149" type="move" name="blwm_Uukaar"/>
    </contour>
    <contour>
      <point x="502" y="623" type="move" name="abvm_Ekaar"/>
    </contour>
    <component base="dvCHA"/>
    <component base="dvRashtrasign" xOffset="551" yOffset="115"/>
  </outline>
</glyph>
<glyph name="dvCH_VA" format="1">
  <advance width="553"/>
  <outline>
    <contour>
      <point x="222" y="-134" type="move" name="blwm_halant"/>
    </contour>
    <contour>
      <point x="254" y="-211" type="move" name="blwm_Ukaar"/>
    </contour>
    <contour>
      <point x="342" y="-211" type="move" name="blwm_VocalicR"/>
    </contour>
    <contour>
      <point x="331" y="623" type="move" name="abvm_Anusvara"/>
    </contour>
    <contour>
      <point x="221" y="-221" type="move" name="blwm_Uukaar"/>
    </contour>
    <contour>
      <point x="502" y="623" type="move" name="abvm_Ekaar"/>
    </contour>
    <contour>
      <point x="-6" y="623" type="line"/>
      <point x="-22" y="623"/>
      <point x="-30" y="616"/>
      <point x="-30" y="600" type="curve" smooth="yes"/>
      <point x="-30" y="544" type="line" smooth="yes"/>
      <point x="-30" y="527"/>
      <point x="-22" y="520"/>
      <point x="-6" y="519" type="curve" smooth="yes"/>
      <point x="80" y="519" type="line"/>
      <point x="80" y="515" type="line"/>
      <point x="63" y="508"/>
      <point x="52" y="492"/>
      <point x="52" y="467" type="curve" smooth="yes"/>
      <point x="52" y="386" type="line" smooth="yes"/>
      <point x="52" y="351"/>
      <point x="72" y="322"/>
      <point x="107" y="316" type="curve"/>
      <point x="107" y="312" type="line"/>
      <point x="67" y="299"/>
      <point x="52" y="263"/>
      <point x="52" y="220" type="curve" smooth="yes"/>
      <point x="52" y="196" type="line" smooth="yes"/>
      <point x="52" y="99"/>
      <point x="119" y="53"/>
      <point x="221" y="53" type="curve" smooth="yes"/>
      <point x="326" y="53" type="line" smooth="yes"/>
      <point x="426" y="53"/>
      <point x="509" y="127"/>
      <point x="509" y="222" type="curve" smooth="yes"/>
      <point x="509" y="282" type="line" smooth="yes"/>
      <point x="509" y="367"/>
      <point x="468" y="413"/>
      <point x="379" y="413" type="curve" smooth="yes"/>
      <point x="338" y="413" type="line" smooth="yes"/>
      <point x="322" y="413"/>
      <point x="314" y="405"/>
      <point x="314" y="391" type="curve" smooth="yes"/>
      <point x="314" y="333" type="line" smooth="yes"/>
      <point x="314" y="317"/>
      <point x="322" y="309"/>
      <point x="338" y="309" type="curve" smooth="yes"/>
      <point x="370" y="309" type="line" smooth="yes"/>
      <point x="386" y="309"/>
      <point x="396" y="298"/>
      <point x="396" y="284" type="curve" smooth="yes"/>
      <point x="396" y="219" type="line" smooth="yes"/>
      <point x="396" y="170"/>
      <point x="378" y="154"/>
      <point x="328" y="154" type="curve" smooth="yes"/>
      <point x="234" y="154" type="line" smooth="yes"/>
      <point x="188" y="154"/>
      <point x="168" y="166"/>
      <point x="168" y="209" type="curve" smooth="yes"/>
      <point x="168" y="219" type="line" smooth="yes"/>
      <point x="168" y="250"/>
      <point x="182" y="266"/>
      <point x="215" y="266" type="curve" smooth="yes"/>
      <point x="237" y="266" type="line" smooth="yes"/>
      <point x="253" y="266"/>
      <point x="261" y="274"/>
      <point x="261" y="288" type="curve" smooth="yes"/>
      <point x="261" y="344" type="line" smooth="yes"/>
      <point x="261" y="360"/>
      <point x="253" y="368"/>
      <point x="237" y="368" type="curve" smooth="yes"/>
      <point x="205" y="368" type="line" smooth="yes"/>
      <point x="182" y="368"/>
      <point x="168" y="381"/>
      <point x="168" y="404" type="curve" smooth="yes"/>
      <point x="168" y="470" type="line" smooth="yes"/>
      <point x="168" y="501"/>
      <point x="184" y="519"/>
      <point x="216" y="519" type="curve" smooth="yes"/>
      <point x="354" y="519" type="line" smooth="yes"/>
      <point x="363" y="518"/>
      <point x="367" y="515"/>
      <point x="367" y="506" type="curve" smooth="yes"/>
      <point x="367" y="446" type="line" smooth="yes"/>
      <point x="367" y="415"/>
      <point x="356" y="393"/>
      <point x="331" y="379" type="curve"/>
      <point x="426" y="379" type="line"/>
      <point x="456" y="388"/>
      <point x="487" y="417"/>
      <point x="487" y="469" type="curve" smooth="yes"/>
      <point x="487" y="507" type="line" smooth="yes"/>
      <point x="487" y="516"/>
      <point x="492" y="519"/>
      <point x="501" y="519" type="curve" smooth="yes"/>
      <point x="559" y="519" type="line" smooth="yes"/>
      <point x="575" y="520"/>
      <point x="583" y="527"/>
      <point x="583" y="544" type="curve" smooth="yes"/>
      <point x="583" y="600" type="line" smooth="yes"/>
      <point x="583" y="616"/>
      <point x="575" y="623"/>
      <point x="559" y="623" type="curve"/>
    </contour>
    <contour>
      <point x="376" y="148" type="line"/>
      <point x="376" y="5" type="line" smooth="yes"/>
      <point x="376" y="-29"/>
      <point x="363" y="-57"/>
      <point x="303" y="-57" type="curve" smooth="yes"/>
      <point x="276" y="-57" type="line" smooth="yes"/>
      <point x="222" y="-57"/>
      <point x="203" y="-40"/>
      <point x="203" y="-5" type="curve" smooth="yes"/>
      <point x="203" y="29"/>
      <point x="217" y="53"/>
      <point x="249" y="53" type="curve"/>
      <point x="160" y="102" type="line"/>
      <point x="117" y="88"/>
      <point x="88" y="55"/>
      <point x="88" y="-17" type="curve" smooth="yes"/>
      <point x="88" y="-105"/>
      <point x="150" y="-158"/>
      <point x="248" y="-158" type="curve" smooth="yes"/>
      <point x="329" y="-158" type="line" smooth="yes"/>
      <point x="428" y="-158"/>
      <point x="487" y="-91"/>
      <point x="487" y="13" type="curve" smooth="yes"/>
      <point x="487" y="148" type="line"/>
    </contour>
  </outline>
</glyph>
<glyph name="dvC_CH_VA" format="1">
  <advance width="913"/>
  <outline>
    <contour>
      <point x="581" y="-135" type="move" name="blwm_halant"/>
    </contour>
    <contour>
      <point x="640" y="-211" type="move" name="blwm_Ukaar"/>
    </contour>
    <contour>
      <point x="702" y="-211" type="move" name="blwm_VocalicR"/>
    </contour>
    <contour>
      <point x="691" y="623" type="move" name="abvm_Anusvara"/>
    </contour>
    <contour>
      <point x="569" y="-221" type="move" name="blwm_Uukaar"/>
    </contour>
    <contour>
      <point x="862" y="623" type="move" name="abvm_Ekaar"/>
    </contour>
    <contour>
      <point x="472" y="519" type="line"/>
      <point x="488" y="519"/>
      <point x="496" y="527"/>
      <point x="496" y="543" type="curve" smooth="yes"/>
      <point x="496" y="600" type="line" smooth="yes"/>
      <point x="496" y="615"/>
      <point x="488" y="623"/>
      <point x="472" y="623" type="curve"/>
      <point x="-6" y="623" type="line"/>
      <point x="-22" y="623"/>
      <point x="-30" y="615"/>
      <point x="-30" y="600" type="curve" smooth="yes"/>
      <point x="-30" y="543" type="line" smooth="yes"/>
      <point x="-30" y="527"/>
      <point x="-22" y="519"/>
      <point x="-6" y="519" type="curve"/>
    </contour>
    <contour>
      <point x="338" y="79" type="line"/>
      <point x="429" y="79"/>
      <point x="488" y="139"/>
      <point x="513" y="185" type="curve" smooth="yes"/>
      <point x="514" y="187"/>
      <point x="516" y="192"/>
      <point x="516" y="197" type="curve" smooth="yes"/>
      <point x="516" y="207"/>
      <point x="511" y="214"/>
      <point x="500" y="222" type="curve" smooth="yes"/>
      <point x="472" y="244" type="line" smooth="yes"/>
      <point x="462" y="252"/>
      <point x="458" y="253"/>
      <point x="453" y="253" type="curve" smooth="yes"/>
      <point x="443" y="253"/>
      <point x="436" y="246"/>
      <point x="428" y="237" type="curve" smooth="yes"/>
      <point x="410" y="216"/>
      <point x="389" y="183"/>
      <point x="336" y="183" type="curve"/>
      <point x="283" y="183" type="line"/>
      <point x="233" y="183"/>
      <point x="211" y="205"/>
      <point x="211" y="252" type="curve" smooth="yes"/>
      <point x="211" y="278" type="line" smooth="yes"/>
      <point x="211" y="326"/>
      <point x="233" y="349"/>
      <point x="277" y="349" type="curve" smooth="yes"/>
      <point x="317" y="349" type="line" smooth="yes"/>
      <point x="333" y="349"/>
      <point x="341" y="357"/>
      <point x="341" y="372" type="curve" smooth="yes"/>
      <point x="341" y="429" type="line" smooth="yes"/>
      <point x="341" y="445"/>
      <point x="333" y="453"/>
      <point x="317" y="453" type="curve" smooth="yes"/>
      <point x="47" y="453" type="line" smooth="yes"/>
      <point x="30" y="453"/>
      <point x="23" y="445"/>
      <point x="23" y="429" type="curve" smooth="yes"/>
      <point x="23" y="372" type="line" smooth="yes"/>
      <point x="23" y="356"/>
      <point x="30" y="349"/>
      <point x="47" y="349" type="curve" smooth="yes"/>
      <point x="134" y="349" type="line"/>
      <point x="134" y="345" type="line"/>
      <point x="106" y="333"/>
      <point x="96" y="302"/>
      <point x="96" y="266" type="curve" smooth="yes"/>
      <point x="96" y="245" type="line" smooth="yes"/>
      <point x="96" y="137"/>
      <point x="155" y="79"/>
      <point x="263" y="79" type="curve"/>
    </contour>
    <component base="dvCH_VA" xOffset="375"/>
  </outline>
</glyph>
<glyph name="dvDDH_RA" format="1">
  <advance width="487"/>
  <outline>
    <contour>
      <point x="198" y="-70" type="move" name="blwm_halant"/>
    </contour>
    <contour>
      <point x="209" y="-147" type="move" name="blwm_Ukaar"/>
    </contour>
    <contour>
      <point x="315" y="-147" type="move" name="blwm_VocalicR"/>
    </contour>
    <contour>
      <point x="322" y="623" type="move" name="abvm_Anusvara"/>
    </contour>
    <contour>
      <point x="190" y="-156" type="move" name="blwm_Uukaar"/>
    </contour>
    <contour>
      <point x="424" y="623" type="move" name="abvm_Ekaar"/>
    </contour>
    <component base="dvRashtrasign" xOffset="530" yOffset="104"/>
    <component base="dvDDHA"/>
  </outline>
</glyph>
<glyph name="dvDD_NA" format="1">
  <advance width="486"/>
  <outline>
    <contour>
      <point x="299" y="-304" type="move" name="blwm_halant"/>
    </contour>
    <contour>
      <point x="299" y="-304" type="move" name="blwm_Ukaar"/>
    </contour>
    <contour>
      <point x="416" y="-304" type="move" name="blwm_VocalicR"/>
    </contour>
    <contour>
      <point x="300" y="623" type="move" name="abvm_Anusvara"/>
    </contour>
    <contour>
      <point x="299" y="-304" type="move" name="blwm_Uukaar"/>
    </contour>
    <contour>
      <point x="416" y="623" type="move" name="abvm_Ekaar"/>
    </contour>
    <contour>
      <point x="-6" y="623" type="line"/>
      <point x="-22" y="623"/>
      <point x="-30" y="616"/>
      <point x="-30" y="600" type="curve" smooth="yes"/>
      <point x="-30" y="542" type="line" smooth="yes"/>
      <point x="-30" y="525"/>
      <point x="-22" y="519"/>
      <point x="-6" y="519" type="curve" smooth="yes"/>
      <point x="289" y="519" type="line" smooth="yes"/>
      <point x="296" y="519"/>
      <point x="300" y="513"/>
      <point x="300" y="505" type="curve" smooth="yes"/>
      <point x="300" y="487" type="line" smooth="yes"/>
      <point x="300" y="478"/>
      <point x="295" y="473"/>
      <point x="288" y="473" type="curve" smooth="yes"/>
      <point x="180" y="473" type="line" smooth="yes"/>
      <point x="100" y="473"/>
      <point x="45" y="433"/>
      <point x="45" y="351" type="curve" smooth="yes"/>
      <point x="45" y="335" type="line" smooth="yes"/>
      <point x="45" y="250"/>
      <point x="87" y="217"/>
      <point x="180" y="217" type="curve" smooth="yes"/>
      <point x="294" y="217" type="line" smooth="yes"/>
      <point x="314" y="217"/>
      <point x="325" y="209"/>
      <point x="325" y="179" type="curve" smooth="yes"/>
      <point x="325" y="168" type="line" smooth="yes"/>
      <point x="325" y="140"/>
      <point x="314" y="131"/>
      <point x="294" y="131" type="curve" smooth="yes"/>
      <point x="212" y="131" type="line" smooth="yes"/>
      <point x="172" y="131"/>
      <point x="149" y="131"/>
      <point x="149" y="163" type="curve" smooth="yes"/>
      <point x="149" y="167" type="line" smooth="yes"/>
      <point x="149" y="186"/>
      <point x="141" y="196"/>
      <point x="127" y="196" type="curve" smooth="yes"/>
      <point x="65" y="196" type="line" smooth="yes"/>
      <point x="48" y="196"/>
      <point x="40" y="186"/>
      <point x="40" y="167" type="curve" smooth="yes"/>
      <point x="40" y="161" type="line" smooth="yes"/>
      <point x="40" y="54"/>
      <point x="107" y="30"/>
      <point x="200" y="30" type="curve" smooth="yes"/>
      <point x="313" y="30" type="line" smooth="yes"/>
      <point x="393" y="30"/>
      <point x="443" y="79"/>
      <point x="443" y="159" type="curve" smooth="yes"/>
      <point x="443" y="193" type="line" smooth="yes"/>
      <point x="443" y="271"/>
      <point x="393" y="311"/>
      <point x="313" y="311" type="curve" smooth="yes"/>
      <point x="190" y="311" type="line" smooth="yes"/>
      <point x="170" y="311"/>
      <point x="159" y="315"/>
      <point x="159" y="341" type="curve" smooth="yes"/>
      <point x="159" y="366"/>
      <point x="170" y="370"/>
      <point x="190" y="370" type="curve" smooth="yes"/>
      <point x="357" y="370" type="line" smooth="yes"/>
      <point x="390" y="370"/>
      <point x="416" y="385"/>
      <point x="416" y="425" type="curve" smooth="yes"/>
      <point x="416" y="505" type="line" smooth="yes"/>
      <point x="416" y="514"/>
      <point x="420" y="519"/>
      <point x="428" y="519" type="curve" smooth="yes"/>
      <point x="492" y="519" type="line" smooth="yes"/>
      <point x="508" y="519"/>
      <point x="516" y="525"/>
      <point x="516" y="542" type="curve" smooth="yes"/>
      <point x="516" y="600" type="line" smooth="yes"/>
      <point x="516" y="616"/>
      <point x="508" y="623"/>
      <point x="492" y="623" type="curve" smooth="yes"/>
    </contour>
    <contour>
      <point x="299" y="89" type="line"/>
      <point x="299" y="-15" type="line" smooth="yes"/>
      <point x="299" y="-24"/>
      <point x="295" y="-29"/>
      <point x="287" y="-29" type="curve" smooth="yes"/>
      <point x="163" y="-29" type="line" smooth="yes"/>
      <point x="90" y="-29"/>
      <point x="39" y="-75"/>
      <point x="39" y="-146" type="curve" smooth="yes"/>
      <point x="39" y="-178"/>
      <point x="42" y="-213"/>
      <point x="59" y="-233" type="curve" smooth="yes"/>
      <point x="67" y="-242"/>
      <point x="78" y="-248"/>
      <point x="93" y="-248" type="curve" smooth="yes"/>
      <point x="142" y="-248" type="line" smooth="yes"/>
      <point x="157" y="-248"/>
      <point x="164" y="-238"/>
      <point x="164" y="-225" type="curve" smooth="yes"/>
      <point x="164" y="-218"/>
      <point x="162" y="-211"/>
      <point x="160" y="-202" type="curve" smooth="yes"/>
      <point x="158" y="-193"/>
      <point x="155" y="-183"/>
      <point x="155" y="-171" type="curve" smooth="yes"/>
      <point x="155" y="-137"/>
      <point x="176" y="-134"/>
      <point x="209" y="-134" type="curve" smooth="yes"/>
      <point x="287" y="-134" type="line" smooth="yes"/>
      <point x="295" y="-134"/>
      <point x="299" y="-139"/>
      <point x="299" y="-148" type="curve" smooth="yes"/>
      <point x="299" y="-281" type="line" smooth="yes"/>
      <point x="299" y="-298"/>
      <point x="307" y="-304"/>
      <point x="323" y="-304" type="curve" smooth="yes"/>
      <point x="392" y="-304" type="line" smooth="yes"/>
      <point x="408" y="-304"/>
      <point x="416" y="-298"/>
      <point x="416" y="-281" type="curve" smooth="yes"/>
      <point x="416" y="89" type="line"/>
    </contour>
  </outline>
</glyph>
<glyph name="dvD_Y_BHA" format="1">
  <advance width="649"/>
  <outline>
    <contour>
      <point x="370" y="158" type="line"/>
      <point x="246" y="16" type="line" smooth="yes"/>
      <point x="242" y="11"/>
      <point x="239" y="10"/>
      <point x="236" y="10" type="curve" smooth="yes"/>
      <point x="233" y="10"/>
      <point x="229" y="12"/>
      <point x="221" y="19" type="curve" smooth="yes"/>
      <point x="195" y="44"/>
      <point x="166" y="55"/>
      <point x="137" y="55" type="curve" smooth="yes"/>
      <point x="98" y="55"/>
      <point x="58" y="34"/>
      <point x="20" y="-7" type="curve" smooth="yes"/>
      <point x="10" y="-18"/>
      <point x="8" y="-23"/>
      <point x="8" y="-29" type="curve"/>
      <point x="8" y="-35"/>
      <point x="10" y="-40"/>
      <point x="16" y="-46" type="curve" smooth="yes"/>
      <point x="57" y="-83" type="line" smooth="yes"/>
      <point x="63" y="-89"/>
      <point x="68" y="-92"/>
      <point x="74" y="-92" type="curve" smooth="yes"/>
      <point x="80" y="-92"/>
      <point x="85" y="-89"/>
      <point x="91" y="-83" type="curve" smooth="yes"/>
      <point x="96" y="-78" type="line" smooth="yes"/>
      <point x="105" y="-68"/>
      <point x="116" y="-58"/>
      <point x="129" y="-58" type="curve" smooth="yes"/>
      <point x="137" y="-58"/>
      <point x="146" y="-62"/>
      <point x="156" y="-71" type="curve" smooth="yes"/>
      <point x="283" y="-190" type="line" smooth="yes"/>
      <point x="288" y="-195"/>
      <point x="294" y="-198"/>
      <point x="299" y="-198" type="curve" smooth="yes"/>
      <point x="305" y="-198"/>
      <point x="310" y="-195"/>
      <point x="317" y="-188" type="curve" smooth="yes"/>
      <point x="358" y="-143" type="line"/>
      <point x="364" y="-138"/>
      <point x="367" y="-132"/>
      <point x="367" y="-126" type="curve" smooth="yes"/>
      <point x="367" y="-121"/>
      <point x="364" y="-115"/>
      <point x="358" y="-109" type="curve" smooth="yes"/>
      <point x="320" y="-74" type="line" smooth="yes"/>
      <point x="316" y="-70"/>
      <point x="316" y="-67"/>
      <point x="316" y="-64" type="curve" smooth="yes"/>
      <point x="316" y="-60"/>
      <point x="319" y="-55"/>
      <point x="322" y="-52" type="curve" smooth="yes"/>
      <point x="483" y="131" type="line"/>
    </contour>
    <contour>
      <point x="264" y="483" type="line"/>
      <point x="170" y="483"/>
      <point x="130" y="438"/>
      <point x="130" y="369" type="curve" smooth="yes"/>
      <point x="130" y="319"/>
      <point x="146" y="298"/>
      <point x="184" y="285" type="curve"/>
      <point x="184" y="281" type="line"/>
      <point x="147" y="268"/>
      <point x="130" y="242"/>
      <point x="130" y="196" type="curve" smooth="yes"/>
      <point x="130" y="116"/>
      <point x="184" y="69"/>
      <point x="281" y="69" type="curve" smooth="yes"/>
      <point x="382" y="69" type="line" smooth="yes"/>
      <point x="425" y="69"/>
      <point x="444" y="92"/>
      <point x="468" y="114" type="curve"/>
      <point x="472" y="114" type="line"/>
      <point x="472" y="-168" type="line" smooth="yes"/>
      <point x="472" y="-185"/>
      <point x="480" y="-191"/>
      <point x="496" y="-191" type="curve" smooth="yes"/>
      <point x="565" y="-191" type="line" smooth="yes"/>
      <point x="581" y="-191"/>
      <point x="589" y="-185"/>
      <point x="589" y="-168" type="curve" smooth="yes"/>
      <point x="589" y="505" type="line" smooth="yes"/>
      <point x="589" y="514"/>
      <point x="593" y="519"/>
      <point x="601" y="519" type="curve" smooth="yes"/>
      <point x="655" y="519" type="line"/>
      <point x="673" y="519"/>
      <point x="679" y="526"/>
      <point x="679" y="543" type="curve" smooth="yes"/>
      <point x="679" y="600" type="line" smooth="yes"/>
      <point x="679" y="616"/>
      <point x="673" y="623"/>
      <point x="655" y="623" type="curve" smooth="yes"/>
      <point x="-6" y="623" type="line" smooth="yes"/>
      <point x="-22" y="623"/>
      <point x="-30" y="615"/>
      <point x="-30" y="600" type="curve" smooth="yes"/>
      <point x="-30" y="544" type="line" smooth="yes"/>
      <point x="-30" y="527"/>
      <point x="-22" y="519"/>
      <point x="-6" y="519" type="curve" smooth="yes"/>
      <point x="275" y="519" type="line" smooth="yes"/>
      <point x="283" y="519"/>
      <point x="287" y="514"/>
      <point x="287" y="505" type="curve" smooth="yes"/>
      <point x="287" y="497" type="line" smooth="yes"/>
      <point x="287" y="488"/>
      <point x="283" y="483"/>
      <point x="275" y="483" type="curve" smooth="yes"/>
    </contour>
    <contour>
      <point x="345" y="400" type="line"/>
      <point x="378" y="400"/>
      <point x="404" y="415"/>
      <point x="404" y="455" type="curve" smooth="yes"/>
      <point x="404" y="505" type="line" smooth="yes"/>
      <point x="404" y="514"/>
      <point x="408" y="519"/>
      <point x="416" y="519" type="curve" smooth="yes"/>
      <point x="460" y="519" type="line"/>
      <point x="468" y="519"/>
      <point x="472" y="514"/>
      <point x="472" y="505" type="curve" smooth="yes"/>
      <point x="472" y="259" type="line" smooth="yes"/>
      <point x="472" y="209"/>
      <point x="451" y="170"/>
      <point x="373" y="170" type="curve" smooth="yes"/>
      <point x="281" y="170" type="line" smooth="yes"/>
      <point x="261" y="170"/>
      <point x="245" y="180"/>
      <point x="245" y="205" type="curve" smooth="yes"/>
      <point x="245" y="230"/>
      <point x="261" y="240"/>
      <point x="281" y="240" type="curve" smooth="yes"/>
      <point x="347" y="240" type="line" smooth="yes"/>
      <point x="363" y="240"/>
      <point x="371" y="247"/>
      <point x="371" y="263" type="curve" smooth="yes"/>
      <point x="371" y="310" type="line" smooth="yes"/>
      <point x="371" y="326"/>
      <point x="363" y="334"/>
      <point x="347" y="334" type="curve" smooth="yes"/>
      <point x="281" y="334" type="line" smooth="yes"/>
      <point x="258" y="334"/>
      <point x="245" y="345"/>
      <point x="245" y="366" type="curve" smooth="yes"/>
      <point x="245" y="391"/>
      <point x="258" y="400"/>
      <point x="294" y="400" type="curve" smooth="yes"/>
    </contour>
  </outline>
</glyph>
<glyph name="dvG_DA" format="1">
  <advance width="763"/>
  <outline>
    <contour>
      <point x="597" y="20" type="move" name="blwm_halant"/>
    </contour>
    <contour>
      <point x="597" y="0" type="move" name="blwm_Ukaar"/>
    </contour>
    <contour>
      <point x="712" y="0" type="move" name="blwm_VocalicR"/>
    </contour>
    <contour>
      <point x="591" y="623" type="move" name="abvm_Anusvara"/>
    </contour>
    <contour>
      <point x="597" y="0" type="move" name="blwm_Uukaar"/>
    </contour>
    <contour>
      <point x="707" y="623" type="move" name="abvm_Ekaar"/>
    </contour>
    <component base="dvG"/>
    <component base="dvDA" xOffset="280"/>
  </outline>
</glyph>
<glyph name="dvK_DA" format="1">
  <advance width="1003"/>
  <outline>
    <contour>
      <point x="837" y="20" type="move" name="blwm_halant"/>
    </contour>
    <contour>
      <point x="837" y="0" type="move" name="blwm_Ukaar"/>
    </contour>
    <contour>
      <point x="952" y="0" type="move" name="blwm_VocalicR"/>
    </contour>
    <contour>
      <point x="831" y="623" type="move" name="abvm_Anusvara"/>
    </contour>
    <contour>
      <point x="837" y="0" type="move" name="blwm_Uukaar"/>
    </contour>
    <contour>
      <point x="947" y="623" type="move" name="abvm_Ekaar"/>
    </contour>
    <component base="dvDA" xOffset="520"/>
    <component base="dvK"/>
  </outline>
</glyph>
<glyph name="dvK_KA" format="1">
  <advance width="1241"/>
  <outline>
    <contour>
      <point x="818" y="0" type="move" name="blwm_halant"/>
    </contour>
    <contour>
      <point x="818" y="0" type="move" name="blwm_Ukaar"/>
    </contour>
    <contour>
      <point x="932" y="0" type="move" name="blwm_VocalicR"/>
    </contour>
    <contour>
      <point x="932" y="623" type="move" name="abvm_Anusvara"/>
    </contour>
    <contour>
      <point x="818" y="0" type="move" name="blwm_Uukaar"/>
    </contour>
    <contour>
      <point x="932" y="623" type="move" name="abvm_Ekaar"/>
    </contour>
    <component base="dvKA" xOffset="510"/>
    <component base="dvK"/>
  </outline>
</glyph>
<glyph name="dvK_TTA" format="1">
  <advance width="972"/>
  <outline>
    <contour>
      <point x="674" y="52" type="move" name="blwm_halant"/>
    </contour>
    <contour>
      <point x="706" y="-24" type="move" name="blwm_Ukaar"/>
    </contour>
    <contour>
      <point x="824" y="108" type="move" name="blwm_Rashtra"/>
    </contour>
    <contour>
      <point x="812" y="-24" type="move" name="blwm_VocalicR"/>
    </contour>
    <contour>
      <point x="803" y="623" type="move" name="abvm_Anusvara"/>
    </contour>
    <contour>
      <point x="668" y="-34" type="move" name="blwm_Uukaar"/>
    </contour>
    <contour>
      <point x="892" y="623" type="move" name="abvm_Ekaar"/>
    </contour>
    <component base="dvTTA" xOffset="507"/>
    <component base="dvK"/>
  </outline>
</glyph>
<glyph name="dvKx_RA" format="1">
  <advance width="731"/>
  <outline>
    <contour>
      <point x="308" y="0" type="move" name="blwm_halant"/>
    </contour>
    <contour>
      <point x="308" y="0" type="move" name="blwm_Ukaar"/>
    </contour>
    <contour>
      <point x="422" y="0" type="move" name="blwm_VocalicR"/>
    </contour>
    <contour>
      <point x="422" y="623" type="move" name="abvm_Anusvara"/>
    </contour>
    <contour>
      <point x="308" y="0" type="move" name="blwm_Uukaar"/>
    </contour>
    <contour>
      <point x="422" y="623" type="move" name="abvm_Ekaar"/>
    </contour>
    <component base="dvK_RA"/>
    <component base="dvNukta" xOffset="532" yOffset="-66"/>
  </outline>
</glyph>
<glyph name="dvL_DDHA" format="1">
  <advance width="894"/>
  <outline>
    <contour>
      <point x="584" y="52" type="move" name="blwm_halant"/>
    </contour>
    <contour>
      <point x="616" y="-24" type="move" name="blwm_Ukaar"/>
    </contour>
    <contour>
      <point x="748" y="108" type="move" name="blwm_Rashtra"/>
    </contour>
    <contour>
      <point x="722" y="-24" type="move" name="blwm_VocalicR"/>
    </contour>
    <contour>
      <point x="729" y="623" type="move" name="abvm_Anusvara"/>
    </contour>
    <contour>
      <point x="578" y="-34" type="move" name="blwm_Uukaar"/>
    </contour>
    <contour>
      <point x="831" y="623" type="move" name="abvm_Ekaar"/>
    </contour>
    <component base="dvL"/>
    <component base="dvDDHA" xOffset="407"/>
  </outline>
</glyph>
<glyph name="dvL_D_RA" format="1">
  <advance width="907"/>
  <outline>
    <contour>
      <point x="742" y="0" type="move" name="blwm_halant"/>
    </contour>
    <contour>
      <point x="742" y="0" type="move" name="blwm_Ukaar"/>
    </contour>
    <contour>
      <point x="856" y="0" type="move" name="blwm_VocalicR"/>
    </contour>
    <contour>
      <point x="746" y="623" type="move" name="abvm_Anusvara"/>
    </contour>
    <contour>
      <point x="742" y="0" type="move" name="blwm_Uukaar"/>
    </contour>
    <contour>
      <point x="848" y="623" type="move" name="abvm_Ekaar"/>
    </contour>
    <component base="dvL"/>
    <component base="dvD_RA" xOffset="424"/>
  </outline>
</glyph>
<glyph name="dvL_TTA" format="1">
  <advance width="886"/>
  <outline>
    <contour>
      <point x="598" y="52" type="move" name="blwm_halant"/>
    </contour>
    <contour>
      <point x="630" y="-24" type="move" name="blwm_Ukaar"/>
    </contour>
    <contour>
      <point x="748" y="108" type="move" name="blwm_Rashtra"/>
    </contour>
    <contour>
      <point x="736" y="-24" type="move" name="blwm_VocalicR"/>
    </contour>
    <contour>
      <point x="727" y="623" type="move" name="abvm_Anusvara"/>
    </contour>
    <contour>
      <point x="592" y="-34" type="move" name="blwm_Uukaar"/>
    </contour>
    <contour>
      <point x="816" y="623" type="move" name="abvm_Ekaar"/>
    </contour>
    <component base="dvL"/>
    <component base="dvTTA" xOffset="421"/>
  </outline>
</glyph>
<glyph name="dvN_DA" format="1">
  <advance width="726"/>
  <outline>
    <contour>
      <point x="560" y="20" type="move" name="blwm_halant"/>
    </contour>
    <contour>
      <point x="560" y="0" type="move" name="blwm_Ukaar"/>
    </contour>
    <contour>
      <point x="675" y="0" type="move" name="blwm_VocalicR"/>
    </contour>
    <contour>
      <point x="554" y="623" type="move" name="abvm_Anusvara"/>
    </contour>
    <contour>
      <point x="560" y="0" type="move" name="blwm_Uukaar"/>
    </contour>
    <contour>
      <point x="670" y="623" type="move" name="abvm_Ekaar"/>
    </contour>
    <component base="dvN"/>
    <component base="dvDA" xOffset="243"/>
  </outline>
</glyph>
<glyph name="dvN_PHA" format="1">
  <advance width="992"/>
  <outline>
    <contour>
      <point x="566" y="0" type="move" name="blwm_halant"/>
    </contour>
    <contour>
      <point x="566" y="0" type="move" name="blwm_Ukaar"/>
    </contour>
    <contour>
      <point x="683" y="0" type="move" name="blwm_VocalicR"/>
    </contour>
    <contour>
      <point x="683" y="623" type="move" name="abvm_Anusvara"/>
    </contour>
    <contour>
      <point x="566" y="0" type="move" name="blwm_Uukaar"/>
    </contour>
    <contour>
      <point x="683" y="623" type="move" name="abvm_Ekaar"/>
    </contour>
    <component base="dvPHA" xOffset="247"/>
    <component base="dvN"/>
  </outline>
</glyph>
<glyph name="dvN_TTA" format="1">
  <advance width="695"/>
  <outline>
    <contour>
      <point x="407" y="52" type="move" name="blwm_halant"/>
    </contour>
    <contour>
      <point x="439" y="-24" type="move" name="blwm_Ukaar"/>
    </contour>
    <contour>
      <point x="557" y="108" type="move" name="blwm_Rashtra"/>
    </contour>
    <contour>
      <point x="545" y="-24" type="move" name="blwm_VocalicR"/>
    </contour>
    <contour>
      <point x="536" y="623" type="move" name="abvm_Anusvara"/>
    </contour>
    <contour>
      <point x="401" y="-34" type="move" name="blwm_Uukaar"/>
    </contour>
    <contour>
      <point x="625" y="623" type="move" name="abvm_Ekaar"/>
    </contour>
    <component base="dvTTA" xOffset="230"/>
    <component base="dvN"/>
  </outline>
</glyph>
<glyph name="dvPH_TTA" format="1">
  <advance width="995"/>
  <outline>
    <contour>
      <point x="707" y="52" type="move" name="blwm_halant"/>
    </contour>
    <contour>
      <point x="739" y="-24" type="move" name="blwm_Ukaar"/>
    </contour>
    <contour>
      <point x="857" y="108" type="move" name="blwm_Rashtra"/>
    </contour>
    <contour>
      <point x="845" y="-24" type="move" name="blwm_VocalicR"/>
    </contour>
    <contour>
      <point x="836" y="623" type="move" name="abvm_Anusvara"/>
    </contour>
    <contour>
      <point x="701" y="-34" type="move" name="blwm_Uukaar"/>
    </contour>
    <contour>
      <point x="925" y="623" type="move" name="abvm_Ekaar"/>
    </contour>
    <component base="dvTTA" xOffset="530"/>
    <component base="dvPH"/>
  </outline>
</glyph>
<glyph name="dvPHx_RA" format="1">
  <advance width="750"/>
  <outline>
    <contour>
      <point x="324" y="0" type="move" name="blwm_halant"/>
    </contour>
    <contour>
      <point x="324" y="0" type="move" name="blwm_Ukaar"/>
    </contour>
    <contour>
      <point x="441" y="0" type="move" name="blwm_VocalicR"/>
    </contour>
    <contour>
      <point x="441" y="623" type="move" name="abvm_Anusvara"/>
    </contour>
    <contour>
      <point x="324" y="0" type="move" name="blwm_Uukaar"/>
    </contour>
    <contour>
      <point x="441" y="623" type="move" name="abvm_Ekaar"/>
    </contour>
    <component base="dvPH_RA"/>
    <component base="dvNukta" xOffset="531" yOffset="-10"/>
  </outline>
</glyph>
<glyph name="dvS_DA" format="1">
  <advance width="845"/>
  <outline>
    <contour>
      <point x="679" y="20" type="move" name="blwm_halant"/>
    </contour>
    <contour>
      <point x="679" y="0" type="move" name="blwm_Ukaar"/>
    </contour>
    <contour>
      <point x="794" y="0" type="move" name="blwm_VocalicR"/>
    </contour>
    <contour>
      <point x="673" y="623" type="move" name="abvm_Anusvara"/>
    </contour>
    <contour>
      <point x="679" y="0" type="move" name="blwm_Uukaar"/>
    </contour>
    <contour>
      <point x="789" y="623" type="move" name="abvm_Ekaar"/>
    </contour>
    <component base="dvDA" xOffset="362"/>
    <component base="dvS"/>
  </outline>
</glyph>
<glyph name="dvS_K_RA" format="1">
  <advance width="1099"/>
  <outline>
    <contour>
      <point x="676" y="0" type="move" name="blwm_halant"/>
    </contour>
    <contour>
      <point x="676" y="0" type="move" name="blwm_Ukaar"/>
    </contour>
    <contour>
      <point x="790" y="0" type="move" name="blwm_VocalicR"/>
    </contour>
    <contour>
      <point x="790" y="623" type="move" name="abvm_Anusvara"/>
    </contour>
    <contour>
      <point x="676" y="0" type="move" name="blwm_Uukaar"/>
    </contour>
    <contour>
      <point x="790" y="623" type="move" name="abvm_Ekaar"/>
    </contour>
    <component base="dvK_RA" xOffset="368"/>
    <component base="dvS"/>
  </outline>
</glyph>
<glyph name="dvS_TTA" format="1">
  <advance width="840"/>
  <outline>
    <contour>
      <point x="552" y="52" type="move" name="blwm_halant"/>
    </contour>
    <contour>
      <point x="584" y="-24" type="move" name="blwm_Ukaar"/>
    </contour>
    <contour>
      <point x="702" y="108" type="move" name="blwm_Rashtra"/>
    </contour>
    <contour>
      <point x="690" y="-24" type="move" name="blwm_VocalicR"/>
    </contour>
    <contour>
      <point x="681" y="623" type="move" name="abvm_Anusvara"/>
    </contour>
    <contour>
      <point x="546" y="-34" type="move" name="blwm_Uukaar"/>
    </contour>
    <contour>
      <point x="770" y="623" type="move" name="abvm_Ekaar"/>
    </contour>
    <component base="dvTTA" xOffset="375"/>
    <component base="dvS"/>
  </outline>
</glyph>
<glyph name="dvTTH_RA" format="1">
  <advance width="499"/>
  <outline>
    <contour>
      <point x="177" y="-71" type="move" name="blwm_halant"/>
    </contour>
    <contour>
      <point x="209" y="-147" type="move" name="blwm_Ukaar"/>
    </contour>
    <contour>
      <point x="315" y="-147" type="move" name="blwm_VocalicR"/>
    </contour>
    <contour>
      <point x="312" y="623" type="move" name="abvm_Anusvara"/>
    </contour>
    <contour>
      <point x="171" y="-158" type="move" name="blwm_Uukaar"/>
    </contour>
    <contour>
      <point x="404" y="623" type="move" name="abvm_Ekaar"/>
    </contour>
    <component base="dvRashtrasign" xOffset="514" yOffset="105"/>
    <component base="dvTTHA"/>
  </outline>
</glyph>
<glyph name="dvTT_NA" format="1">
  <advance width="510"/>
  <outline>
    <contour>
      <point x="309" y="-280" type="move" name="blwm_halant"/>
    </contour>
    <contour>
      <point x="309" y="-280" type="move" name="blwm_Ukaar"/>
    </contour>
    <contour>
      <point x="426" y="-280" type="move" name="blwm_VocalicR"/>
    </contour>
    <contour>
      <point x="310" y="623" type="move" name="abvm_Anusvara"/>
    </contour>
    <contour>
      <point x="309" y="-280" type="move" name="blwm_Uukaar"/>
    </contour>
    <contour>
      <point x="426" y="623" type="move" name="abvm_Ekaar"/>
    </contour>
    <contour>
      <point x="209" y="438" type="line"/>
      <point x="93" y="438"/>
      <point x="38" y="373"/>
      <point x="38" y="270" type="curve"/>
      <point x="38" y="243" type="line"/>
      <point x="38" y="140"/>
      <point x="93" y="71"/>
      <point x="209" y="71" type="curve" smooth="yes"/>
      <point x="306" y="71" type="line" smooth="yes"/>
      <point x="416" y="71"/>
      <point x="476" y="125"/>
      <point x="476" y="237" type="curve" smooth="yes"/>
      <point x="476" y="241" type="line" smooth="yes"/>
      <point x="476" y="260"/>
      <point x="468" y="270"/>
      <point x="451" y="270" type="curve" smooth="yes"/>
      <point x="389" y="270" type="line" smooth="yes"/>
      <point x="375" y="270"/>
      <point x="367" y="260"/>
      <point x="367" y="241" type="curve" smooth="yes"/>
      <point x="367" y="237" type="line" smooth="yes"/>
      <point x="367" y="186"/>
      <point x="342" y="175"/>
      <point x="294" y="175" type="curve" smooth="yes"/>
      <point x="223" y="175" type="line" smooth="yes"/>
      <point x="174" y="175"/>
      <point x="151" y="192"/>
      <point x="151" y="240" type="curve" smooth="yes"/>
      <point x="151" y="270" type="line" smooth="yes"/>
      <point x="151" y="318"/>
      <point x="174" y="335"/>
      <point x="223" y="335" type="curve"/>
      <point x="367" y="335" type="line" smooth="yes"/>
      <point x="400" y="335"/>
      <point x="426" y="350"/>
      <point x="426" y="390" type="curve" smooth="yes"/>
      <point x="426" y="505" type="line" smooth="yes"/>
      <point x="426" y="514"/>
      <point x="430" y="519"/>
      <point x="438" y="519" type="curve" smooth="yes"/>
      <point x="516" y="519" type="line" smooth="yes"/>
      <point x="532" y="519"/>
      <point x="540" y="527"/>
      <point x="540" y="543" type="curve" smooth="yes"/>
      <point x="540" y="600" type="line" smooth="yes"/>
      <point x="540" y="615"/>
      <point x="532" y="623"/>
      <point x="516" y="623" type="curve" smooth="yes"/>
      <point x="-6" y="623" type="line" smooth="yes"/>
      <point x="-23" y="623"/>
      <point x="-30" y="615"/>
      <point x="-30" y="600" type="curve" smooth="yes"/>
      <point x="-30" y="543" type="line" smooth="yes"/>
      <point x="-30" y="527"/>
      <point x="-23" y="519"/>
      <point x="-6" y="519" type="curve" smooth="yes"/>
      <point x="299" y="519" type="line" smooth="yes"/>
      <point x="306" y="519"/>
      <point x="310" y="513"/>
      <point x="310" y="505" type="curve" smooth="yes"/>
      <point x="310" y="452" type="line" smooth="yes"/>
      <point x="310" y="443"/>
      <point x="305" y="438"/>
      <point x="298" y="438" type="curve"/>
    </contour>
    <contour>
      <point x="309" y="113" type="line"/>
      <point x="309" y="9" type="line" smooth="yes"/>
      <point x="309" y="0"/>
      <point x="305" y="-5"/>
      <point x="297" y="-5" type="curve" smooth="yes"/>
      <point x="163" y="-5" type="line" smooth="yes"/>
      <point x="90" y="-5"/>
      <point x="39" y="-51"/>
      <point x="39" y="-122" type="curve" smooth="yes"/>
      <point x="39" y="-154"/>
      <point x="42" y="-189"/>
      <point x="59" y="-209" type="curve" smooth="yes"/>
      <point x="67" y="-218"/>
      <point x="78" y="-224"/>
      <point x="93" y="-224" type="curve" smooth="yes"/>
      <point x="142" y="-224" type="line" smooth="yes"/>
      <point x="157" y="-224"/>
      <point x="164" y="-214"/>
      <point x="164" y="-201" type="curve" smooth="yes"/>
      <point x="164" y="-194"/>
      <point x="162" y="-187"/>
      <point x="160" y="-178" type="curve" smooth="yes"/>
      <point x="158" y="-169"/>
      <point x="155" y="-159"/>
      <point x="155" y="-147" type="curve" smooth="yes"/>
      <point x="155" y="-113"/>
      <point x="176" y="-110"/>
      <point x="209" y="-110" type="curve" smooth="yes"/>
      <point x="297" y="-110" type="line" smooth="yes"/>
      <point x="305" y="-110"/>
      <point x="309" y="-115"/>
      <point x="309" y="-124" type="curve" smooth="yes"/>
      <point x="309" y="-257" type="line" smooth="yes"/>
      <point x="309" y="-274"/>
      <point x="317" y="-280"/>
      <point x="333" y="-280" type="curve" smooth="yes"/>
      <point x="402" y="-280" type="line" smooth="yes"/>
      <point x="418" y="-280"/>
      <point x="426" y="-274"/>
      <point x="426" y="-257" type="curve" smooth="yes"/>
      <point x="426" y="113" type="line"/>
    </contour>
  </outline>
</glyph>
<glyph name="dvTT_RA" format="1">
  <advance width="466"/>
  <outline>
    <contour>
      <point x="177" y="-56" type="move" name="blwm_halant"/>
    </contour>
    <contour>
      <point x="217" y="-145" type="move" name="blwm_Ukaar"/>
    </contour>
    <contour>
      <point x="300" y="-145" type="move" name="blwm_VocalicR"/>
    </contour>
    <contour>
      <point x="306" y="623" type="move" name="abvm_Anusvara"/>
    </contour>
    <contour>
      <point x="171" y="-155" type="move" name="blwm_Uukaar"/>
    </contour>
    <contour>
      <point x="395" y="623" type="move" name="abvm_Ekaar"/>
    </contour>
    <component base="dvRashtrasign" xOffset="510" yOffset="107"/>
    <component base="dvTTA"/>
  </outline>
</glyph>
<glyph name="dvT_PHA" format="1">
  <advance width="1004"/>
  <outline>
    <contour>
      <point x="578" y="0" type="move" name="blwm_halant"/>
    </contour>
    <contour>
      <point x="578" y="0" type="move" name="blwm_Ukaar"/>
    </contour>
    <contour>
      <point x="695" y="0" type="move" name="blwm_VocalicR"/>
    </contour>
    <contour>
      <point x="695" y="623" type="move" name="abvm_Anusvara"/>
    </contour>
    <contour>
      <point x="578" y="0" type="move" name="blwm_Uukaar"/>
    </contour>
    <contour>
      <point x="695" y="623" type="move" name="abvm_Ekaar"/>
    </contour>
    <component base="dvT"/>
    <component base="dvPHA" xOffset="259"/>
  </outline>
</glyph>
